# xmcd
#
# Track frame offsets:
#   150
#   17793
#   28899
#   40881
#   58505
#   74589
#   85620
#   99647
#   115840
#   132668
#   149060
#   162565
#   176227
#   189863
#
# Disc length: 2691 seconds
#
# Revision: 0
# Processed by: cddbd v1.5.1PL0 Copyright (c) Steve Scherf et al.
# Submitted via: uFREEDB ActiveX Control 1.5
#
DISCID=d00a810e
DTITLE=Gleno Rossi - Gleno Rossi
DYEAR=1998
DGENRE=Country
TTITLE0=Vem me buscar
TTITLE1=Se voce ainda pensa em min
TTITLE2=Pick Up Country
TTITLE3=Bem aos olhos da lua
TTITLE4=Foi deus quem fez voce
TTITLE5=Cuidado garota
TTITLE6=Perigosa demais
TTITLE7=A dois passos do paraiso
TTITLE8=Me faz perder o medo
TTITLE9=Seu melhor amigo
TTITLE10=Na proxima estaçâo
TTITLE11=Viola esta chorando
TTITLE12=Paixão de cowboy
TTITLE13=Alô Marilú
EXTD=
EXTT0=
EXTT1=
EXTT2=
EXTT3=
EXTT4=
EXTT5=
EXTT6=
EXTT7=
EXTT8=
EXTT9=
EXTT10=
EXTT11=
EXTT12=
EXTT13=
PLAYORDER=
